<svg width="12" height="12" viewBox="0 0 12 12" fill="none" xmlns="http://www.w3.org/2000/svg">
<g clip-path="url(#clip0_208_379)">
<path d="M6.418 0.0139018C5.56078 -0.0460777 4.70068 0.0787745 3.89589 0.38001C3.0911 0.681246 2.36041 1.15184 1.75326 1.75994C1.1461 2.36804 0.676654 3.09947 0.376674 3.90472C0.0766945 4.70998 -0.0468155 5.57028 0.0145015 6.4274C0.235002 9.6039 3.041 11.9999 6.5415 11.9999H9.5C10.1628 11.9991 10.7982 11.7355 11.2669 11.2668C11.7356 10.7981 11.9992 10.1627 12 9.4999V6.1699C12.0187 4.62863 11.4536 3.13735 10.4182 1.99549C9.38277 0.853626 7.95375 0.14572 6.418 0.0139018ZM9.35 4.8559L5.9535 8.2094C5.76608 8.39611 5.5123 8.50094 5.24775 8.50094C4.9832 8.50094 4.72943 8.39611 4.542 8.2094L2.65 6.3574C2.55519 6.26458 2.50113 6.13789 2.49972 6.00521C2.49832 5.87252 2.54968 5.74472 2.6425 5.6499C2.73533 5.55509 2.86202 5.50103 2.9947 5.49962C3.12738 5.49822 3.25519 5.54958 3.35 5.6424L5.2465 7.4959L8.6495 4.1459C8.74547 4.06146 8.87013 4.01699 8.99787 4.02161C9.12561 4.02623 9.24673 4.0796 9.33634 4.17074C9.42595 4.26189 9.47725 4.3839 9.4797 4.5117C9.48215 4.6395 9.43556 4.76339 9.3495 4.8579L9.35 4.8559Z" fill="#0CEDA6"/>
</g>
<defs>
<clipPath id="clip0_208_379">
<rect width="12" height="12" fill="white"/>
</clipPath>
</defs>
</svg>
