<svg width="192" height="38" viewBox="0 0 192 38" fill="none" xmlns="http://www.w3.org/2000/svg">
<path d="M28.4946 27.7397L28.4946 27.7397L17.7446 33.9631C16.5079 34.679 14.9839 34.679 13.7472 33.9631L2.99715 27.7397L2.99712 27.7397C1.76177 27.0246 1 25.7031 1 24.2722V11.7279C1 10.2969 1.76177 8.97544 2.99715 8.26027L2.49614 7.39483L2.99715 8.26027L13.7472 2.03696L13.2462 1.17152L13.7472 2.03696C14.9839 1.32101 16.5079 1.32101 17.7446 2.03696L28.4946 8.26027L28.9956 7.39483L28.4946 8.26028C29.73 8.97547 30.4918 10.297 30.4918 11.7279V24.2722C30.4918 25.7031 29.73 27.0246 28.4946 27.7397Z" fill="url(#paint0_linear_208_505)" fill-opacity="0.2" stroke="url(#paint1_linear_208_505)" stroke-width="2"/>
<path opacity="0.8" d="M23.1125 23.7064L23.1125 23.7064L16.9696 27.2626C16.2125 27.7009 15.2794 27.7009 14.5223 27.2626C14.5223 27.2626 14.5223 27.2626 14.5223 27.2626L8.3794 23.7064L8.37938 23.7064C7.62311 23.2686 7.15694 22.4597 7.15694 21.5841V14.4159C7.15694 13.5403 7.62311 12.7314 8.37939 12.2936L14.5223 8.73739L14.3176 8.38383L14.5223 8.73739C15.2794 8.29907 16.2125 8.29907 16.9696 8.73739L23.1125 12.2936L23.3116 11.9496L23.1125 12.2936C23.8688 12.7314 24.335 13.5403 24.335 14.4159V21.5841C24.335 22.4597 23.8688 23.2686 23.1125 23.7064Z" fill="url(#paint2_linear_208_505)" stroke="url(#paint3_linear_208_505)" stroke-width="0.817308"/>
<path d="M50.8313 5.95312C50.765 5.33286 50.4857 4.84991 49.9932 4.50426C49.5056 4.15862 48.8711 3.9858 48.0898 3.9858C47.5406 3.9858 47.0695 4.06866 46.6765 4.23438C46.2835 4.40009 45.9828 4.625 45.7745 4.90909C45.5662 5.19318 45.4596 5.51752 45.4549 5.8821C45.4549 6.18513 45.5235 6.44792 45.6609 6.67045C45.8029 6.89299 45.9947 7.08239 46.2361 7.23864C46.4776 7.39015 46.7451 7.51799 47.0387 7.62216C47.3323 7.72633 47.6282 7.81392 47.9265 7.88494L49.2901 8.22585C49.8394 8.35369 50.3673 8.52651 50.8739 8.74432C51.3853 8.96212 51.8422 9.23674 52.2447 9.56818C52.6519 9.89962 52.9738 10.2997 53.2106 10.7685C53.4473 11.2372 53.5657 11.7865 53.5657 12.4162C53.5657 13.2685 53.3479 14.0189 52.9123 14.6676C52.4767 15.3116 51.8469 15.8158 51.0231 16.1804C50.2039 16.5402 49.212 16.7202 48.0472 16.7202C46.9156 16.7202 45.9331 16.545 45.0998 16.1946C44.2712 15.8442 43.6225 15.3329 43.1538 14.6605C42.6897 13.9882 42.4388 13.169 42.4009 12.2031H44.9932C45.0311 12.7098 45.1874 13.1312 45.462 13.4673C45.7366 13.8035 46.0941 14.0545 46.5344 14.2202C46.9795 14.3859 47.4767 14.4688 48.0259 14.4688C48.5988 14.4688 49.1007 14.3835 49.5316 14.2131C49.9672 14.0379 50.3081 13.7964 50.5543 13.4886C50.8005 13.1761 50.926 12.8116 50.9307 12.3949C50.926 12.0161 50.8147 11.7036 50.5969 11.4574C50.3791 11.2064 50.0737 10.9981 49.6807 10.8324C49.2925 10.6619 48.8379 10.5104 48.3171 10.3778L46.6623 9.9517C45.4644 9.64394 44.5174 9.17756 43.8214 8.55256C43.1301 7.92282 42.7844 7.08712 42.7844 6.04545C42.7844 5.18845 43.0164 4.43797 43.4805 3.79403C43.9492 3.15009 44.586 2.65057 45.391 2.29545C46.1959 1.93561 47.1074 1.75568 48.1253 1.75568C49.1575 1.75568 50.0619 1.93561 50.8384 2.29545C51.6197 2.65057 52.2328 3.14536 52.6779 3.77983C53.123 4.40956 53.3526 5.134 53.3668 5.95312H50.8313ZM58.9403 16.7202C58.249 16.7202 57.6264 16.5971 57.0724 16.3509C56.5232 16.0999 56.0876 15.7306 55.7656 15.2429C55.4484 14.7552 55.2898 14.1539 55.2898 13.4389C55.2898 12.8234 55.4034 12.3144 55.6307 11.9119C55.8579 11.5095 56.1681 11.1875 56.5611 10.946C56.9541 10.7045 57.3968 10.5223 57.8892 10.3991C58.3864 10.2713 58.9001 10.179 59.4304 10.1222C60.0696 10.0559 60.5881 9.99669 60.9858 9.9446C61.3835 9.88778 61.6723 9.80256 61.8523 9.68892C62.0369 9.57055 62.1293 9.38826 62.1293 9.14205V9.09943C62.1293 8.56439 61.9706 8.15009 61.6534 7.85653C61.3362 7.56297 60.8793 7.41619 60.2827 7.41619C59.6529 7.41619 59.1534 7.5535 58.7841 7.82812C58.4195 8.10275 58.1733 8.42708 58.0454 8.80114L55.6449 8.46023C55.8343 7.79735 56.1468 7.24337 56.5824 6.7983C57.018 6.34848 57.5507 6.01231 58.1804 5.78977C58.8101 5.5625 59.5061 5.44886 60.2685 5.44886C60.794 5.44886 61.3172 5.51042 61.8381 5.63352C62.3589 5.75663 62.8347 5.96023 63.2656 6.24432C63.6965 6.52367 64.0421 6.90483 64.3025 7.38778C64.5677 7.87074 64.7003 8.47443 64.7003 9.19886V16.5H62.2287V15.0014H62.1435C61.9872 15.3045 61.767 15.5885 61.4829 15.8537C61.2036 16.1141 60.8508 16.3248 60.4247 16.4858C60.0033 16.642 59.5085 16.7202 58.9403 16.7202ZM59.6079 14.831C60.124 14.831 60.5715 14.7292 60.9503 14.5256C61.3291 14.3172 61.6203 14.0426 61.8239 13.7017C62.0322 13.3608 62.1364 12.9891 62.1364 12.5866V11.3011C62.0559 11.3674 61.9185 11.429 61.7244 11.4858C61.535 11.5426 61.322 11.5923 61.0852 11.6349C60.8485 11.6776 60.6141 11.7154 60.3821 11.7486C60.1501 11.7817 59.9489 11.8101 59.7784 11.8338C59.3949 11.8859 59.0516 11.9711 58.7486 12.0895C58.4455 12.2079 58.2064 12.3736 58.0312 12.5866C57.856 12.795 57.7685 13.0649 57.7685 13.3963C57.7685 13.8698 57.9413 14.2273 58.2869 14.4688C58.6326 14.7102 59.0729 14.831 59.6079 14.831ZM68.4929 20.5909C68.1425 20.5909 67.8182 20.5625 67.5199 20.5057C67.2263 20.4536 66.9919 20.392 66.8168 20.321L67.4133 18.3182C67.7874 18.4271 68.1212 18.4792 68.4148 18.4744C68.7083 18.4697 68.9664 18.3774 69.1889 18.1974C69.4162 18.0223 69.6079 17.7287 69.7642 17.3168L69.9844 16.7273L66.0284 5.59091H68.7557L71.2699 13.8295H71.3835L73.9048 5.59091H76.6392L72.2713 17.821C72.0677 18.3987 71.7978 18.8935 71.4616 19.3054C71.1255 19.7221 70.7135 20.0393 70.2258 20.2571C69.7429 20.4796 69.1652 20.5909 68.4929 20.5909ZM82.8768 16.7131C81.783 16.7131 80.8384 16.4858 80.043 16.0312C79.2522 15.572 78.6438 14.9233 78.2177 14.0852C77.7915 13.2424 77.5785 12.2505 77.5785 11.1094C77.5785 9.98722 77.7915 9.00237 78.2177 8.15483C78.6485 7.30256 79.2499 6.63968 80.0217 6.16619C80.7934 5.68797 81.7002 5.44886 82.7418 5.44886C83.4142 5.44886 84.0486 5.55777 84.6452 5.77557C85.2466 5.98864 85.7769 6.32008 86.2361 6.76989C86.7002 7.2197 87.0647 7.79261 87.3299 8.48864C87.595 9.17992 87.7276 10.0038 87.7276 10.9602V11.7486H78.7859V10.0156H85.2631C85.2584 9.5232 85.1519 9.08523 84.9435 8.7017C84.7352 8.31345 84.444 8.00805 84.0699 7.78551C83.7006 7.56297 83.2698 7.4517 82.7773 7.4517C82.2518 7.4517 81.7901 7.57955 81.3924 7.83523C80.9947 8.08617 80.6845 8.41761 80.462 8.82955C80.2442 9.23674 80.1329 9.68419 80.1282 10.1719V11.6847C80.1282 12.3191 80.2442 12.8636 80.4762 13.3182C80.7082 13.768 81.0325 14.1136 81.4492 14.3551C81.8659 14.5919 82.3536 14.7102 82.9123 14.7102C83.2863 14.7102 83.6249 14.6581 83.9279 14.554C84.2309 14.4451 84.4937 14.2865 84.7163 14.0781C84.9388 13.8698 85.1069 13.6117 85.2205 13.304L87.6211 13.5739C87.4696 14.2083 87.1807 14.7623 86.7546 15.2358C86.3332 15.7045 85.7934 16.0691 85.1353 16.3295C84.4771 16.5852 83.7243 16.7131 82.8768 16.7131ZM93.951 16.6918C93.094 16.6918 92.3269 16.4716 91.6498 16.0312C90.9728 15.5909 90.4377 14.9517 90.0447 14.1136C89.6517 13.2756 89.4552 12.2576 89.4552 11.0597C89.4552 9.84754 89.6541 8.82481 90.0518 7.99148C90.4543 7.15341 90.9964 6.52131 91.6783 6.09517C92.3601 5.6643 93.12 5.44886 93.9581 5.44886C94.5973 5.44886 95.1229 5.55777 95.5348 5.77557C95.9467 5.98864 96.2734 6.24669 96.5149 6.54972C96.7564 6.84801 96.9434 7.12973 97.076 7.39489H97.1825V1.95455H99.7606V16.5H97.2322V14.7812H97.076C96.9434 15.0464 96.7516 15.3281 96.5007 15.6264C96.2498 15.92 95.9183 16.1709 95.5064 16.3793C95.0944 16.5876 94.576 16.6918 93.951 16.6918ZM94.6683 14.5824C95.2128 14.5824 95.6768 14.4356 96.0604 14.142C96.4439 13.8437 96.7351 13.4295 96.9339 12.8991C97.1328 12.3688 97.2322 11.7509 97.2322 11.0455C97.2322 10.34 97.1328 9.7268 96.9339 9.20597C96.7398 8.68513 96.451 8.2803 96.0675 7.99148C95.6887 7.70265 95.2223 7.55824 94.6683 7.55824C94.0954 7.55824 93.6172 7.70739 93.2337 8.00568C92.8501 8.30398 92.5613 8.71591 92.3672 9.24148C92.173 9.76705 92.076 10.3684 92.076 11.0455C92.076 11.7273 92.173 12.3357 92.3672 12.8707C92.566 13.401 92.8572 13.8201 93.2408 14.1278C93.629 14.4309 94.1049 14.5824 94.6683 14.5824ZM109.443 16.5H106.63L111.751 1.95455H115.004L120.132 16.5H117.319L113.434 4.9375H113.321L109.443 16.5ZM109.535 10.7969H117.206V12.9134H109.535V10.7969ZM122.048 16.5V1.95455H124.619V7.39489H124.725C124.858 7.12973 125.045 6.84801 125.286 6.54972C125.528 6.24669 125.854 5.98864 126.266 5.77557C126.678 5.55777 127.204 5.44886 127.843 5.44886C128.686 5.44886 129.446 5.6643 130.123 6.09517C130.805 6.52131 131.344 7.15341 131.742 7.99148C132.145 8.82481 132.346 9.84754 132.346 11.0597C132.346 12.2576 132.149 13.2756 131.756 14.1136C131.363 14.9517 130.828 15.5909 130.151 16.0312C129.474 16.4716 128.707 16.6918 127.85 16.6918C127.225 16.6918 126.707 16.5876 126.295 16.3793C125.883 16.1709 125.551 15.92 125.3 15.6264C125.054 15.3281 124.862 15.0464 124.725 14.7812H124.576V16.5H122.048ZM124.569 11.0455C124.569 11.7509 124.668 12.3688 124.867 12.8991C125.071 13.4295 125.362 13.8437 125.741 14.142C126.124 14.4356 126.588 14.5824 127.133 14.5824C127.701 14.5824 128.177 14.4309 128.56 14.1278C128.944 13.8201 129.233 13.401 129.427 12.8707C129.626 12.3357 129.725 11.7273 129.725 11.0455C129.725 10.3684 129.628 9.76705 129.434 9.24148C129.24 8.71591 128.951 8.30398 128.567 8.00568C128.184 7.70739 127.706 7.55824 127.133 7.55824C126.584 7.55824 126.117 7.70265 125.734 7.99148C125.35 8.2803 125.059 8.68513 124.86 9.20597C124.666 9.7268 124.569 10.34 124.569 11.0455ZM138.58 16.6918C137.723 16.6918 136.956 16.4716 136.279 16.0312C135.602 15.5909 135.067 14.9517 134.674 14.1136C134.281 13.2756 134.084 12.2576 134.084 11.0597C134.084 9.84754 134.283 8.82481 134.681 7.99148C135.083 7.15341 135.625 6.52131 136.307 6.09517C136.989 5.6643 137.749 5.44886 138.587 5.44886C139.226 5.44886 139.752 5.55777 140.164 5.77557C140.576 5.98864 140.902 6.24669 141.144 6.54972C141.385 6.84801 141.572 7.12973 141.705 7.39489H141.811V1.95455H144.39V16.5H141.861V14.7812H141.705C141.572 15.0464 141.381 15.3281 141.13 15.6264C140.879 15.92 140.547 16.1709 140.135 16.3793C139.723 16.5876 139.205 16.6918 138.58 16.6918ZM139.297 14.5824C139.842 14.5824 140.306 14.4356 140.689 14.142C141.073 13.8437 141.364 13.4295 141.563 12.8991C141.762 12.3688 141.861 11.7509 141.861 11.0455C141.861 10.34 141.762 9.7268 141.563 9.20597C141.369 8.68513 141.08 8.2803 140.696 7.99148C140.318 7.70265 139.851 7.55824 139.297 7.55824C138.724 7.55824 138.246 7.70739 137.863 8.00568C137.479 8.30398 137.19 8.71591 136.996 9.24148C136.802 9.76705 136.705 10.3684 136.705 11.0455C136.705 11.7273 136.802 12.3357 136.996 12.8707C137.195 13.401 137.486 13.8201 137.87 14.1278C138.258 14.4309 138.734 14.5824 139.297 14.5824ZM151.959 16.7131C150.865 16.7131 149.92 16.4858 149.125 16.0312C148.334 15.572 147.726 14.9233 147.3 14.0852C146.874 13.2424 146.661 12.2505 146.661 11.1094C146.661 9.98722 146.874 9.00237 147.3 8.15483C147.731 7.30256 148.332 6.63968 149.104 6.16619C149.875 5.68797 150.782 5.44886 151.824 5.44886C152.496 5.44886 153.131 5.55777 153.727 5.77557C154.329 5.98864 154.859 6.32008 155.318 6.76989C155.782 7.2197 156.147 7.79261 156.412 8.48864C156.677 9.17992 156.81 10.0038 156.81 10.9602V11.7486H147.868V10.0156H154.345C154.34 9.5232 154.234 9.08523 154.026 8.7017C153.817 8.31345 153.526 8.00805 153.152 7.78551C152.783 7.56297 152.352 7.4517 151.859 7.4517C151.334 7.4517 150.872 7.57955 150.474 7.83523C150.077 8.08617 149.767 8.41761 149.544 8.82955C149.326 9.23674 149.215 9.68419 149.21 10.1719V11.6847C149.21 12.3191 149.326 12.8636 149.558 13.3182C149.79 13.768 150.115 14.1136 150.531 14.3551C150.948 14.5919 151.436 14.7102 151.994 14.7102C152.368 14.7102 152.707 14.6581 153.01 14.554C153.313 14.4451 153.576 14.2865 153.798 14.0781C154.021 13.8698 154.189 13.6117 154.303 13.304L156.703 13.5739C156.552 14.2083 156.263 14.7623 155.837 15.2358C155.415 15.7045 154.875 16.0691 154.217 16.3295C153.559 16.5852 152.806 16.7131 151.959 16.7131ZM161.556 1.95455V16.5H158.985V1.95455H161.556ZM167.339 16.7202C166.647 16.7202 166.025 16.5971 165.471 16.3509C164.922 16.0999 164.486 15.7306 164.164 15.2429C163.847 14.7552 163.688 14.1539 163.688 13.4389C163.688 12.8234 163.802 12.3144 164.029 11.9119C164.256 11.5095 164.567 11.1875 164.96 10.946C165.352 10.7045 165.795 10.5223 166.288 10.3991C166.785 10.2713 167.299 10.179 167.829 10.1222C168.468 10.0559 168.986 9.99669 169.384 9.9446C169.782 9.88778 170.071 9.80256 170.251 9.68892C170.435 9.57055 170.528 9.38826 170.528 9.14205V9.09943C170.528 8.56439 170.369 8.15009 170.052 7.85653C169.735 7.56297 169.278 7.41619 168.681 7.41619C168.051 7.41619 167.552 7.5535 167.183 7.82812C166.818 8.10275 166.572 8.42708 166.444 8.80114L164.043 8.46023C164.233 7.79735 164.545 7.24337 164.981 6.7983C165.416 6.34848 165.949 6.01231 166.579 5.78977C167.209 5.5625 167.905 5.44886 168.667 5.44886C169.192 5.44886 169.716 5.51042 170.236 5.63352C170.757 5.75663 171.233 5.96023 171.664 6.24432C172.095 6.52367 172.441 6.90483 172.701 7.38778C172.966 7.87074 173.099 8.47443 173.099 9.19886V16.5H170.627V15.0014H170.542C170.386 15.3045 170.165 15.5885 169.881 15.8537C169.602 16.1141 169.249 16.3248 168.823 16.4858C168.402 16.642 167.907 16.7202 167.339 16.7202ZM168.006 14.831C168.522 14.831 168.97 14.7292 169.349 14.5256C169.727 14.3172 170.019 14.0426 170.222 13.7017C170.431 13.3608 170.535 12.9891 170.535 12.5866V11.3011C170.454 11.3674 170.317 11.429 170.123 11.4858C169.933 11.5426 169.72 11.5923 169.484 11.6349C169.247 11.6776 169.013 11.7154 168.781 11.7486C168.549 11.7817 168.347 11.8101 168.177 11.8338C167.793 11.8859 167.45 11.9711 167.147 12.0895C166.844 12.2079 166.605 12.3736 166.43 12.5866C166.254 12.795 166.167 13.0649 166.167 13.3963C166.167 13.8698 166.34 14.2273 166.685 14.4688C167.031 14.7102 167.471 14.831 168.006 14.831ZM178.823 16.7202C178.132 16.7202 177.509 16.5971 176.955 16.3509C176.406 16.0999 175.97 15.7306 175.648 15.2429C175.331 14.7552 175.173 14.1539 175.173 13.4389C175.173 12.8234 175.286 12.3144 175.513 11.9119C175.741 11.5095 176.051 11.1875 176.444 10.946C176.837 10.7045 177.28 10.5223 177.772 10.3991C178.269 10.2713 178.783 10.179 179.313 10.1222C179.952 10.0559 180.471 9.99669 180.869 9.9446C181.266 9.88778 181.555 9.80256 181.735 9.68892C181.92 9.57055 182.012 9.38826 182.012 9.14205V9.09943C182.012 8.56439 181.853 8.15009 181.536 7.85653C181.219 7.56297 180.762 7.41619 180.165 7.41619C179.536 7.41619 179.036 7.5535 178.667 7.82812C178.302 8.10275 178.056 8.42708 177.928 8.80114L175.528 8.46023C175.717 7.79735 176.03 7.24337 176.465 6.7983C176.901 6.34848 177.433 6.01231 178.063 5.78977C178.693 5.5625 179.389 5.44886 180.151 5.44886C180.677 5.44886 181.2 5.51042 181.721 5.63352C182.242 5.75663 182.718 5.96023 183.148 6.24432C183.579 6.52367 183.925 6.90483 184.185 7.38778C184.451 7.87074 184.583 8.47443 184.583 9.19886V16.5H182.111V15.0014H182.026C181.87 15.3045 181.65 15.5885 181.366 15.8537C181.086 16.1141 180.734 16.3248 180.308 16.4858C179.886 16.642 179.391 16.7202 178.823 16.7202ZM179.491 14.831C180.007 14.831 180.454 14.7292 180.833 14.5256C181.212 14.3172 181.503 14.0426 181.707 13.7017C181.915 13.3608 182.019 12.9891 182.019 12.5866V11.3011C181.939 11.3674 181.801 11.429 181.607 11.4858C181.418 11.5426 181.205 11.5923 180.968 11.6349C180.731 11.6776 180.497 11.7154 180.265 11.7486C180.033 11.7817 179.832 11.8101 179.661 11.8338C179.278 11.8859 178.934 11.9711 178.631 12.0895C178.328 12.2079 178.089 12.3736 177.914 12.5866C177.739 12.795 177.651 13.0649 177.651 13.3963C177.651 13.8698 177.824 14.2273 178.17 14.4688C178.515 14.7102 178.956 14.831 179.491 14.831ZM189.739 1.95455V16.5H187.168V1.95455H189.739Z" fill="white"/>
<path d="M49.4066 24.3182H50.6395V31.0597C50.6395 31.7557 50.4755 32.3771 50.1474 32.924C49.8226 33.4676 49.3635 33.8968 48.7702 34.2116C48.177 34.5232 47.4809 34.679 46.6822 34.679C45.8834 34.679 45.1874 34.5232 44.5941 34.2116C44.0008 33.8968 43.5401 33.4676 43.212 32.924C42.8872 32.3771 42.7248 31.7557 42.7248 31.0597V24.3182H43.9577V30.9602C43.9577 31.4574 44.0671 31.8999 44.2859 32.2876C44.5046 32.6721 44.8162 32.9754 45.2205 33.1974C45.6282 33.4162 46.1154 33.5256 46.6822 33.5256C47.2489 33.5256 47.7361 33.4162 48.1438 33.1974C48.5515 32.9754 48.863 32.6721 49.0785 32.2876C49.2972 31.8999 49.4066 31.4574 49.4066 30.9602V24.3182ZM53.6983 24.3182L56.3233 28.554H56.4029L59.0279 24.3182H60.4796L57.2779 29.4091L60.4796 34.5H59.0279L56.4029 30.3438H56.3233L53.6983 34.5H52.2466L55.5279 29.4091L52.2466 24.3182H53.6983ZM71.5898 26.8636C71.5302 26.3598 71.2882 25.9688 70.864 25.6903C70.4397 25.4119 69.9194 25.2727 69.3029 25.2727C68.8521 25.2727 68.4577 25.3456 68.1197 25.4915C67.7849 25.6373 67.5231 25.8378 67.3342 26.093C67.1485 26.3482 67.0557 26.6383 67.0557 26.9631C67.0557 27.2348 67.1204 27.4685 67.2496 27.6641C67.3822 27.8563 67.5512 28.017 67.7567 28.1463C67.9622 28.2723 68.1777 28.3767 68.403 28.4595C68.6284 28.5391 68.8356 28.6037 69.0245 28.6534L70.0586 28.9318C70.3237 29.0014 70.6187 29.0975 70.9435 29.2202C71.2717 29.3428 71.5849 29.5102 71.8832 29.7223C72.1848 29.9311 72.4333 30.1996 72.6289 30.5277C72.8244 30.8558 72.9222 31.2585 72.9222 31.7358C72.9222 32.286 72.778 32.7831 72.4897 33.2273C72.2047 33.6714 71.787 34.0244 71.2368 34.2862C70.69 34.5481 70.0254 34.679 69.2432 34.679C68.5141 34.679 67.8827 34.5613 67.3491 34.326C66.8188 34.0907 66.4011 33.7625 66.0962 33.3416C65.7946 32.9207 65.6239 32.4318 65.5842 31.875H66.8569C66.89 32.2595 67.0193 32.5777 67.2447 32.8295C67.4734 33.0781 67.7617 33.2637 68.1097 33.3864C68.461 33.5057 68.8389 33.5653 69.2432 33.5653C69.7139 33.5653 70.1365 33.4891 70.511 33.3366C70.8855 33.1809 71.1822 32.9654 71.4009 32.6903C71.6197 32.4119 71.729 32.0871 71.729 31.7159C71.729 31.3778 71.6346 31.1027 71.4457 30.8906C71.2567 30.6785 71.0082 30.5062 70.6999 30.3736C70.3917 30.241 70.0586 30.125 69.7006 30.0256L68.4478 29.6676C67.6523 29.4389 67.0226 29.1125 66.5586 28.6882C66.0946 28.264 65.8626 27.7088 65.8626 27.0227C65.8626 26.4527 66.0167 25.9555 66.3249 25.5312C66.6365 25.1037 67.0541 24.7723 67.5778 24.5369C68.1047 24.2983 68.6931 24.179 69.3427 24.179C69.9989 24.179 70.5823 24.2966 71.0927 24.532C71.6031 24.764 72.0074 25.0821 72.3057 25.4865C72.6074 25.8909 72.7664 26.3499 72.783 26.8636H71.5898ZM74.7903 37.3636V26.8636H75.9238V28.0767H76.063C76.1492 27.9441 76.2685 27.7751 76.421 27.5696C76.5768 27.3608 76.7988 27.1752 77.0872 27.0128C77.3788 26.8471 77.7732 26.7642 78.2704 26.7642C78.9134 26.7642 79.4802 26.925 79.9707 27.2464C80.4612 27.5679 80.844 28.0237 81.1191 28.6136C81.3942 29.2036 81.5318 29.8996 81.5318 30.7017C81.5318 31.5104 81.3942 32.2114 81.1191 32.8047C80.844 33.3946 80.4629 33.852 79.9757 34.1768C79.4884 34.4983 78.9267 34.6591 78.2903 34.6591C77.7998 34.6591 77.407 34.5779 77.112 34.4155C76.817 34.2498 76.59 34.0625 76.4309 33.8537C76.2718 33.6416 76.1492 33.4659 76.063 33.3267H75.9636V37.3636H74.7903ZM75.9437 30.6818C75.9437 31.2585 76.0282 31.7673 76.1973 32.2081C76.3663 32.6456 76.6132 32.9886 76.938 33.2372C77.2628 33.4825 77.6606 33.6051 78.1312 33.6051C78.6217 33.6051 79.0311 33.4759 79.3592 33.2173C79.6906 32.9555 79.9392 32.6042 80.1049 32.1634C80.274 31.7192 80.3585 31.2254 80.3585 30.6818C80.3585 30.1449 80.2756 29.661 80.1099 29.2301C79.9475 28.7959 79.7006 28.4529 79.3691 28.201C79.041 27.9458 78.6284 27.8182 78.1312 27.8182C77.6539 27.8182 77.2529 27.9392 76.9281 28.1811C76.6033 28.4197 76.358 28.7545 76.1923 29.1854C76.0266 29.6129 75.9437 30.1117 75.9437 30.6818ZM86.5232 34.6591C85.7875 34.6591 85.1527 34.4967 84.6191 34.1719C84.0888 33.8438 83.6795 33.3864 83.3911 32.7997C83.1061 32.2098 82.9636 31.5237 82.9636 30.7415C82.9636 29.9593 83.1061 29.2699 83.3911 28.6733C83.6795 28.0734 84.0805 27.6061 84.5943 27.2713C85.1113 26.9332 85.7145 26.7642 86.4039 26.7642C86.8017 26.7642 87.1944 26.8305 87.5822 26.9631C87.97 27.0956 88.323 27.3111 88.6411 27.6094C88.9593 27.9044 89.2129 28.2955 89.4018 28.7827C89.5907 29.2699 89.6852 29.8698 89.6852 30.5824V31.0795H83.7988V30.0653H88.492C88.492 29.6345 88.4058 29.25 88.2335 28.9119C88.0644 28.5739 87.8225 28.3071 87.5076 28.1115C87.1961 27.916 86.8282 27.8182 86.4039 27.8182C85.9366 27.8182 85.5322 27.9342 85.1909 28.1662C84.8528 28.3949 84.5926 28.6932 84.4103 29.0611C84.228 29.429 84.1369 29.8234 84.1369 30.2443V30.9205C84.1369 31.4972 84.2363 31.986 84.4352 32.3871C84.6374 32.7848 84.9174 33.0881 85.2754 33.2969C85.6333 33.5024 86.0493 33.6051 86.5232 33.6051C86.8315 33.6051 87.1099 33.562 87.3585 33.4759C87.6104 33.3864 87.8275 33.2538 88.0098 33.0781C88.192 32.8991 88.3329 32.6771 88.4323 32.4119L89.5659 32.7301C89.4465 33.1146 89.246 33.4527 88.9643 33.7443C88.6826 34.0327 88.3346 34.258 87.9203 34.4205C87.506 34.5795 87.0403 34.6591 86.5232 34.6591ZM94.5723 34.6591C93.8563 34.6591 93.2399 34.4901 92.7228 34.152C92.2058 33.8139 91.8081 33.3482 91.5296 32.755C91.2512 32.1617 91.112 31.4839 91.112 30.7216C91.112 29.946 91.2545 29.2616 91.5396 28.6683C91.8279 28.0717 92.229 27.6061 92.7427 27.2713C93.2598 26.9332 93.863 26.7642 94.5524 26.7642C95.0893 26.7642 95.5732 26.8636 96.0041 27.0625C96.4349 27.2614 96.7879 27.5398 97.063 27.8977C97.3381 28.2557 97.5088 28.6733 97.5751 29.1506H96.4018C96.3123 28.8026 96.1134 28.4943 95.8052 28.2259C95.5003 27.9541 95.0893 27.8182 94.5723 27.8182C94.1149 27.8182 93.7138 27.9375 93.3691 28.1761C93.0277 28.4115 92.7609 28.7446 92.5687 29.1754C92.3798 29.603 92.2853 30.1051 92.2853 30.6818C92.2853 31.2718 92.3781 31.7855 92.5637 32.223C92.7527 32.6605 93.0178 33.0002 93.3592 33.2422C93.7039 33.4841 94.1082 33.6051 94.5723 33.6051C94.8772 33.6051 95.1539 33.5521 95.4025 33.446C95.6511 33.34 95.8616 33.1875 96.0339 32.9886C96.2063 32.7898 96.3289 32.5511 96.4018 32.2727H97.5751C97.5088 32.7235 97.3447 33.1295 97.0829 33.4908C96.8244 33.8487 96.4813 34.1338 96.0538 34.3459C95.6295 34.5547 95.1357 34.6591 94.5723 34.6591ZM99.2903 34.5V26.8636H100.464V34.5H99.2903ZM99.8869 25.5909C99.6582 25.5909 99.461 25.513 99.2953 25.3572C99.1329 25.2015 99.0517 25.0142 99.0517 24.7955C99.0517 24.5767 99.1329 24.3894 99.2953 24.2337C99.461 24.0779 99.6582 24 99.8869 24C100.116 24 100.311 24.0779 100.474 24.2337C100.639 24.3894 100.722 24.5767 100.722 24.7955C100.722 25.0142 100.639 25.2015 100.474 25.3572C100.311 25.513 100.116 25.5909 99.8869 25.5909ZM104.86 34.679C104.376 34.679 103.937 34.5878 103.542 34.4055C103.148 34.2199 102.835 33.9531 102.603 33.6051C102.371 33.2538 102.255 32.8295 102.255 32.3324C102.255 31.8949 102.341 31.5402 102.513 31.2685C102.685 30.9934 102.916 30.7779 103.204 30.6222C103.493 30.4664 103.811 30.3504 104.159 30.2741C104.51 30.1946 104.863 30.1316 105.218 30.0852C105.682 30.0256 106.058 29.9808 106.346 29.951C106.638 29.9179 106.85 29.8632 106.983 29.7869C107.118 29.7107 107.186 29.5781 107.186 29.3892V29.3494C107.186 28.8589 107.052 28.4777 106.784 28.206C106.519 27.9342 106.116 27.7983 105.576 27.7983C105.015 27.7983 104.576 27.9209 104.258 28.1662C103.94 28.4115 103.716 28.6733 103.587 28.9517L102.473 28.554C102.672 28.09 102.937 27.7287 103.269 27.4702C103.604 27.2083 103.968 27.026 104.363 26.9233C104.76 26.8172 105.151 26.7642 105.536 26.7642C105.781 26.7642 106.063 26.794 106.381 26.8537C106.703 26.91 107.012 27.0277 107.311 27.2067C107.612 27.3857 107.863 27.6558 108.061 28.017C108.26 28.3783 108.36 28.8622 108.36 29.4688V34.5H107.186V33.4659H107.127C107.047 33.6316 106.915 33.8089 106.729 33.9979C106.543 34.1868 106.297 34.3475 105.988 34.4801C105.68 34.6127 105.304 34.679 104.86 34.679ZM105.039 33.625C105.503 33.625 105.894 33.5339 106.212 33.3516C106.533 33.1693 106.775 32.9339 106.938 32.6456C107.104 32.3572 107.186 32.054 107.186 31.7358V30.6619C107.137 30.7216 107.027 30.7763 106.858 30.826C106.693 30.8724 106.5 30.9138 106.282 30.9503C106.066 30.9834 105.856 31.0133 105.65 31.0398C105.448 31.063 105.284 31.0829 105.158 31.0994C104.853 31.1392 104.568 31.2038 104.303 31.2933C104.041 31.3795 103.829 31.5104 103.667 31.6861C103.507 31.8584 103.428 32.0937 103.428 32.392C103.428 32.7997 103.579 33.108 103.88 33.3168C104.185 33.5223 104.571 33.625 105.039 33.625ZM111.675 24.3182V34.5H110.501V24.3182H111.675ZM113.823 34.5V26.8636H114.997V34.5H113.823ZM114.42 25.5909C114.191 25.5909 113.994 25.513 113.828 25.3572C113.666 25.2015 113.585 25.0142 113.585 24.7955C113.585 24.5767 113.666 24.3894 113.828 24.2337C113.994 24.0779 114.191 24 114.42 24C114.649 24 114.844 24.0779 115.007 24.2337C115.172 24.3894 115.255 24.5767 115.255 24.7955C115.255 25.0142 115.172 25.2015 115.007 25.3572C114.844 25.513 114.649 25.5909 114.42 25.5909ZM122.555 28.5739L121.501 28.8722C121.435 28.6965 121.337 28.5258 121.208 28.3601C121.082 28.1911 120.909 28.0518 120.691 27.9425C120.472 27.8331 120.192 27.7784 119.85 27.7784C119.383 27.7784 118.994 27.8861 118.682 28.1016C118.374 28.3137 118.22 28.5838 118.22 28.9119C118.22 29.2036 118.326 29.4339 118.538 29.603C118.75 29.772 119.081 29.9129 119.532 30.0256L120.666 30.304C121.348 30.4697 121.857 30.7232 122.192 31.0646C122.527 31.4027 122.694 31.8385 122.694 32.3722C122.694 32.8097 122.568 33.2008 122.316 33.5455C122.068 33.8902 121.72 34.1619 121.272 34.3608C120.825 34.5597 120.304 34.6591 119.711 34.6591C118.932 34.6591 118.288 34.4901 117.777 34.152C117.267 33.8139 116.944 33.3201 116.808 32.6705L117.921 32.392C118.027 32.803 118.228 33.1113 118.523 33.3168C118.821 33.5223 119.211 33.625 119.691 33.625C120.238 33.625 120.672 33.509 120.994 33.277C121.319 33.0417 121.481 32.7599 121.481 32.4318C121.481 32.1667 121.388 31.9446 121.203 31.7656C121.017 31.5833 120.732 31.4474 120.347 31.358L119.075 31.0597C118.375 30.8939 117.862 30.6371 117.534 30.2891C117.209 29.9377 117.046 29.4986 117.046 28.9716C117.046 28.5407 117.167 28.1596 117.409 27.8281C117.655 27.4967 117.988 27.2365 118.409 27.0476C118.833 26.8587 119.313 26.7642 119.85 26.7642C120.606 26.7642 121.199 26.9299 121.63 27.2614C122.064 27.5928 122.373 28.0303 122.555 28.5739ZM127.781 26.8636V27.858H123.824V26.8636H127.781ZM124.977 25.0341H126.151V32.3125C126.151 32.6439 126.199 32.8925 126.295 33.0582C126.394 33.2206 126.52 33.33 126.673 33.3864C126.828 33.4394 126.992 33.4659 127.165 33.4659C127.294 33.4659 127.4 33.4593 127.483 33.446C127.566 33.4295 127.632 33.4162 127.682 33.4062L127.92 34.4602C127.841 34.4901 127.73 34.5199 127.587 34.5497C127.445 34.5829 127.264 34.5994 127.045 34.5994C126.714 34.5994 126.389 34.5282 126.071 34.3857C125.756 34.2431 125.494 34.026 125.286 33.7344C125.08 33.4427 124.977 33.0748 124.977 32.6307V25.0341Z" fill="white" fill-opacity="0.6"/>
<defs>
<linearGradient id="paint0_linear_208_505" x1="0" y1="18" x2="31.4918" y2="18" gradientUnits="userSpaceOnUse">
<stop stop-color="#ED0C93"/>
<stop offset="1" stop-color="#C80CED"/>
</linearGradient>
<linearGradient id="paint1_linear_208_505" x1="0" y1="18" x2="31.4918" y2="18" gradientUnits="userSpaceOnUse">
<stop stop-color="#ED0C93"/>
<stop offset="1" stop-color="#C80CED"/>
</linearGradient>
<linearGradient id="paint2_linear_208_505" x1="6.74829" y1="18" x2="24.7436" y2="18" gradientUnits="userSpaceOnUse">
<stop stop-color="#ED0C93"/>
<stop offset="1" stop-color="#C80CED"/>
</linearGradient>
<linearGradient id="paint3_linear_208_505" x1="6.74829" y1="18" x2="24.7436" y2="18" gradientUnits="userSpaceOnUse">
<stop stop-color="#ED0C93"/>
<stop offset="1" stop-color="#C80CED"/>
</linearGradient>
</defs>
</svg>
